<?xml version="1.0" encoding="utf-8"?>
<!-- Generator: Adobe Illustrator 15.1.0, SVG Export Plug-In  -->
<!DOCTYPE svg PUBLIC "-//W3C//DTD SVG 1.1//EN" "http://www.w3.org/Graphics/SVG/1.1/DTD/svg11.dtd" [
	<!ENTITY ns_flows "http://ns.adobe.com/Flows/1.0/">
]>
<svg version="1.1"
	 xmlns="http://www.w3.org/2000/svg" xmlns:xlink="http://www.w3.org/1999/xlink" xmlns:a="http://ns.adobe.com/AdobeSVGViewerExtensions/3.0/"
	 x="0px" y="0px" width="400px" height="400px" viewBox="-2.44 -5.04 400 400"
	 overflow="visible" enable-background="new -2.44 -5.04 400 400" xml:space="preserve">
<defs>
</defs>
<path fill="none" stroke="#9A9775" stroke-width="2.7737" d="M163.07,144.36l-6.4-6.65c0,0,5.85-4.82,16.15-8.41l2.38,8.96
	C175.2,138.26,168.68,140.46,163.07,144.36z"/>
<path fill="none" stroke="#9A9775" stroke-width="2.7737" d="M148.15,158.67l-8.29-4.05c0,0,3.85-6.53,12.3-13.42l5.3,7.6
	C157.46,148.79,152.08,153.09,148.15,158.67z"/>
<path fill="none" stroke="#9A9775" stroke-width="2.7737" d="M139.02,177.21l-9.18-0.97c0,0,1.39-7.45,6.97-16.83l7.58,5.34
	C144.4,164.75,140.81,170.62,139.02,177.21z"/>
<path fill="none" stroke="#9A9775" stroke-width="2.7737" d="M136.79,197.76l-8.96,2.22c0,0-1.24-7.48,0.8-18.19l8.94,2.42
	C137.57,184.22,136.21,190.96,136.79,197.76z"/>
<path fill="none" stroke="#9A9775" stroke-width="2.7737" d="M141.72,217.84l-7.66,5.15c0,0-3.72-6.6-5.47-17.37l9.23-0.79
	C137.82,204.84,138.85,211.65,141.72,217.84z"/>
<path fill="none" stroke="#9A9775" stroke-width="2.7737" d="M153.21,235.02l-5.43,7.45c0,0-5.75-4.92-11.08-14.44l8.41-3.9
	C145.11,224.13,148.4,230.18,153.21,235.02z"/>
<path fill="none" stroke="#9A9775" stroke-width="2.7737" d="M169.89,247.23l-2.55,8.87c0,0-7.09-2.67-15.36-9.78l6.57-6.54
	C158.55,239.77,163.72,244.33,169.89,247.23z"/>
<path fill="none" stroke="#9A9775" stroke-width="2.7737" d="M189.75,253l0.63,9.2c0,0-7.58-0.07-17.77-3.93l3.93-8.39
	C176.54,249.88,182.94,252.38,189.75,253z"/>
<path fill="none" stroke="#9A9775" stroke-width="2.7737" d="M210.37,251.63l3.75,8.44c0,0-7.15,2.52-18.05,2.38l0.82-9.23
	C196.89,253.21,203.77,253.38,210.37,251.63z"/>
<path fill="none" stroke="#9A9775" stroke-width="2.7737" d="M229.28,243.29l6.4,6.65c0,0-5.85,4.81-16.15,8.4l-2.38-8.96
	C217.16,249.38,223.68,247.19,229.28,243.29z"/>
<path fill="none" stroke="#9A9775" stroke-width="2.7737" d="M244.2,228.98l8.29,4.06c0,0-3.86,6.52-12.29,13.42l-5.3-7.6
	C234.9,238.86,240.28,234.56,244.2,228.98z"/>
<path fill="none" stroke="#9A9775" stroke-width="2.7737" d="M253.33,210.44l9.18,0.97c0,0-1.4,7.44-6.97,16.82l-7.58-5.33
	C247.97,222.9,251.55,217.02,253.33,210.44z"/>
<path fill="none" stroke="#9A9775" stroke-width="2.7737" d="M255.57,189.89l8.96-2.23c0,0,1.24,7.48-0.8,18.19l-8.95-2.42
	C254.78,203.44,256.15,196.69,255.57,189.89z"/>
<path fill="none" stroke="#9A9775" stroke-width="2.7737" d="M250.64,169.81l7.66-5.15c0,0,3.72,6.59,5.47,17.36l-9.23,0.79
	C254.54,182.81,253.51,176,250.64,169.81z"/>
<path fill="none" stroke="#9A9775" stroke-width="2.7737" d="M239.15,152.63l5.43-7.45c0,0,5.75,4.92,11.08,14.44l-8.41,3.9
	C247.25,163.52,243.96,157.47,239.15,152.63z"/>
<path fill="none" stroke="#9A9775" stroke-width="2.7737" d="M222.46,140.43l2.56-8.87c0,0,7.09,2.66,15.35,9.78l-6.57,6.54
	C233.8,147.88,228.64,143.32,222.46,140.43z"/>
<path fill="none" stroke="#9A9775" stroke-width="2.7737" d="M202.61,134.66l-0.63-9.2c0,0,7.58,0.08,17.77,3.93l-3.93,8.39
	C215.82,137.78,209.41,135.27,202.61,134.66z"/>
<path fill="none" stroke="#9A9775" stroke-width="2.7737" d="M181.99,136.02l-3.75-8.43c0,0,7.15-2.52,18.05-2.38l-0.82,9.23
	C195.47,134.44,188.59,134.27,181.99,136.02z"/>
<path fill="#9A9775" d="M250.6,194.06c0,30.27-24.51,54.8-54.75,54.8c-30.23,0-54.75-24.53-54.75-54.8
	c0-30.26,24.51-54.79,54.75-54.79C226.09,139.27,250.6,163.8,250.6,194.06z"/>
<polygon fill="none" stroke="#9A9775" stroke-width="5.5684" points="393.56,127.54 393.56,263.64 336.1,263.64 336.1,329.18 
	334.83,330.44 333.56,331.69 267.13,331.69 267.13,388.4 129.21,388.4 129.21,331.69 62.78,331.69 60.25,329.18 60.25,263.64 
	2.78,263.64 2.78,127.54 60.25,127.54 60.25,61.98 61.51,60.73 62.78,59.49 129.21,59.49 129.21,2.78 267.13,2.78 267.13,59.49 
	333.56,59.49 334.83,60.73 336.1,61.98 336.1,127.54 "/>
<path fill="none" stroke="#9A9775" stroke-width="4.1606" d="M271.59,194.2c0,41.88-33.94,75.82-75.81,75.82
	c-41.87,0-75.81-33.94-75.81-75.82c0-41.87,33.94-75.81,75.81-75.81C237.65,118.39,271.59,152.33,271.59,194.2z"/>
<polygon fill="none" stroke="#9A9775" stroke-width="4.1606" points="187.23,111.75 196.76,95.23 206.3,111.75 "/>
<polygon fill="none" stroke="#9A9775" stroke-width="4.1606" points="147.15,127.07 147.15,108 163.67,117.54 "/>
<polygon fill="none" stroke="#9A9775" stroke-width="4.1606" points="120.11,160.38 110.58,143.87 129.65,143.87 "/>
<polygon fill="none" stroke="#9A9775" stroke-width="4.1606" points="113.34,202.75 96.83,193.21 113.34,183.68 "/>
<polygon fill="none" stroke="#9A9775" stroke-width="4.1606" points="128.67,242.83 109.6,242.83 119.13,226.31 "/>
<polygon fill="none" stroke="#9A9775" stroke-width="4.1606" points="161.98,269.87 145.46,279.4 145.45,260.34 "/>
<polygon fill="none" stroke="#9A9775" stroke-width="4.1606" points="204.34,276.64 194.81,293.15 185.27,276.65 "/>
<polygon fill="none" stroke="#9A9775" stroke-width="4.1606" points="244.42,261.32 244.42,280.39 227.91,270.86 "/>
<polygon fill="none" stroke="#9A9775" stroke-width="4.1606" points="271.47,228.01 281,244.52 261.93,244.53 "/>
<polygon fill="none" stroke="#9A9775" stroke-width="4.1606" points="278.24,185.64 294.75,195.17 278.24,204.71 "/>
<polygon fill="none" stroke="#9A9775" stroke-width="4.1606" points="262.92,145.56 281.98,145.56 272.45,162.08 "/>
<polygon fill="none" stroke="#9A9775" stroke-width="4.1606" points="229.61,118.51 246.11,108.98 246.12,128.05 "/>
<polyline fill="none" stroke="#9A9775" stroke-width="5.5684" points="15.5,216.11 44.93,216.11 44.93,212.48 44.93,197.3 
	33.94,197.3 33.94,206.95 17.27,206.95 17.27,190.04 44.93,190.04 44.93,186.4 44.93,171.22 33.94,171.22 33.94,180.87 
	17.27,180.87 17.27,163.94 47.06,163.94 15.5,163.94 44.93,163.94 44.93,160.31 44.93,145.13 33.94,145.13 33.94,154.78 
	17.27,154.78 17.27,137.85 70.33,137.85 70.33,68.53 139.39,68.53 139.39,15.48 147.72,15.48 147.72,12.74 147.72,43.14 
	151.36,43.14 166.53,43.14 166.53,32.15 156.88,32.15 156.88,15.48 173.81,15.48 173.81,45.26 173.81,43.14 171.1,43.17 
	193.01,43.17 193.01,32.18 183.36,32.18 183.36,15.51 200.29,15.51 200.29,45.3 200.29,13.74 200.29,43.17 203.93,43.17 
	203.52,43.14 218.7,43.14 218.7,32.15 209.05,32.15 209.05,15.48 226.31,15.48 226.31,43.14 229.62,43.14 244.8,43.14 244.8,32.15 
	235.15,32.15 235.15,15.48 252.08,15.48 252.08,69.45 324.73,69.45 324.73,138.32 378.33,138.32 378.33,146.61 348.24,146.61 
	380.13,146.61 350.38,146.61 350.38,150.25 350.38,165.38 361.5,165.38 361.5,155.75 378.33,155.75 378.33,172.64 347.44,172.64 
	350.38,172.64 350.38,176.26 350.38,191.4 361.5,191.4 361.5,181.77 378.33,181.77 378.33,198.66 381.19,198.63 350.38,198.63 
	350.38,202.26 350.38,217.4 361.5,217.4 361.5,207.78 378.33,207.78 378.33,224.66 348.24,224.66 380.13,224.66 350.38,224.66 
	350.38,228.28 350.38,243.42 361.5,243.42 361.5,233.79 378.33,233.79 378.33,250.67 324.73,250.67 324.73,319.8 252.33,319.8 
	252.33,372.65 244,372.65 244,342.86 244,374.42 244,344.99 240.36,344.99 225.19,344.99 225.19,355.98 234.83,355.98 
	234.83,372.65 217.9,372.65 217.9,344.99 220.69,344.99 199.09,344.99 199.09,355.98 208.74,355.98 208.74,372.65 191.83,372.65 
	191.83,344.99 188.19,344.99 173.02,344.99 173.02,355.98 182.67,355.98 182.67,372.65 165.74,372.65 165.74,342.86 165.74,374.42 
	165.74,344.99 162.1,344.99 146.92,344.99 146.92,355.98 156.58,355.98 156.58,372.65 139.64,372.65 139.64,319.6 70.33,319.6 
	70.33,250.54 17.27,250.54 17.27,239.48 17.27,242.21 14.56,242.21 44.93,242.21 44.93,238.57 44.93,223.39 33.94,223.39 
	33.94,233.04 17.27,233.04 17.27,216.11 47.06,216.11 "/>
<path fill="none" stroke="#9A9775" stroke-width="5.5474" d="M307.42,100.78c0,9.66-7.83,17.49-17.49,17.49
	c-9.66,0-17.49-7.83-17.49-17.49c0-9.65,7.83-17.49,17.49-17.49C299.59,83.29,307.42,91.13,307.42,100.78z"/>
<path fill="none" stroke="#9A9775" stroke-width="5.5474" d="M300.03,100.78c0,5.57-4.52,10.1-10.09,10.1s-10.09-4.52-10.09-10.1
	c0-5.57,4.52-10.09,10.09-10.09S300.03,95.21,300.03,100.78z"/>
<path fill="none" stroke="#9A9775" stroke-width="5.5474" d="M108.26,83.29c9.66,0,17.49,7.83,17.49,17.49
	c0,9.65-7.83,17.49-17.49,17.49c-9.65,0-17.49-7.83-17.49-17.49C90.77,91.12,98.6,83.29,108.26,83.29z"/>
<path fill="none" stroke="#9A9775" stroke-width="5.5474" d="M108.26,90.68c5.57,0,10.1,4.52,10.1,10.1
	c0,5.57-4.52,10.09-10.1,10.09c-5.57,0-10.09-4.52-10.09-10.09C98.16,95.2,102.69,90.68,108.26,90.68z"/>
<path fill="none" stroke="#9A9775" stroke-width="5.5474" d="M90.77,282.46c0-9.66,7.83-17.49,17.49-17.49
	c9.65,0,17.49,7.83,17.49,17.49c0,9.65-7.83,17.49-17.49,17.49C98.6,299.95,90.77,292.11,90.77,282.46z"/>
<path fill="none" stroke="#9A9775" stroke-width="5.5474" d="M98.16,282.46c0-5.58,4.52-10.1,10.1-10.1
	c5.57,0,10.09,4.52,10.09,10.1c0,5.57-4.52,10.09-10.09,10.09C102.68,292.55,98.16,288.03,98.16,282.46z"/>
<path fill="none" stroke="#9A9775" stroke-width="5.5474" d="M289.93,299.95c-9.66,0-17.49-7.83-17.49-17.49
	c0-9.65,7.83-17.49,17.49-17.49c9.65,0,17.49,7.83,17.49,17.49C307.42,292.12,299.59,299.95,289.93,299.95z"/>
<path fill="none" stroke="#9A9775" stroke-width="5.5474" d="M289.93,292.56c-5.57,0-10.1-4.52-10.1-10.1
	c0-5.58,4.52-10.09,10.1-10.09c5.57,0,10.09,4.52,10.09,10.09C300.03,288.04,295.5,292.56,289.93,292.56z"/>
<path fill="none" stroke="#9A9775" stroke-width="4.1606" d="M250.6,194.06c0,30.27-24.51,54.8-54.75,54.8
	c-30.23,0-54.75-24.53-54.75-54.8c0-30.26,24.51-54.79,54.75-54.79C226.09,139.27,250.6,163.8,250.6,194.06z"/>
<path fill="none" d="M218.41,234.64c0,0.02,0,0.02,0,0.02c0,0,2.41-3.85,2.91-8.81C220.84,230.64,218.57,234.39,218.41,234.64z"/>
<path fill="#FFFFFF" d="M229.49,194.8c-3.28-3.9-8.4-6.99-15.31-9.25c-3.53-1.14-6.81-2.02-9.87-2.69c-3.06-0.64-6.24-1.3-9.55-1.99
	c-2.83-0.59-5.17-1.22-6.98-1.89c-1.42-0.5-2.54-1.04-3.33-1.62c-0.47-0.32-0.87-0.67-1.19-1.04c-1.04-1.17-1.54-2.64-1.54-4.43
	c0-1.59,0.57-2.98,1.69-4.23c1.14-1.24,2.49-2.17,4.08-2.77c1.77-0.74,3.63-1.21,5.55-1.48c1.91-0.28,3.85-0.4,5.79-0.4
	c5.52,0,10.91,0.99,16.18,2.93c5.27,1.97,9.75,4.43,13.37,7.34h2.49v-20.84c-4.25-1.74-9.27-3.19-15.07-4.32
	c-5.82-1.17-11.69-1.75-17.65-1.75c-5.3,0-10.17,0.55-14.6,1.6c0,0-0.05,0-0.17,0.02c-3.41,0.85-6.59,1.99-9.48,3.46c0,0,0,0,0,0.03
	c-1.71,0.84-3.33,1.81-4.85,2.88c-7.56,5.33-11.34,12.21-11.34,20.61c0,6.27,1.69,11.54,5.02,15.77c3.33,4.23,8.8,7.56,16.41,10.05
	c3.33,1.09,6.88,1.98,10.66,2.68c3.78,0.73,7.36,1.47,10.77,2.29c1.3,0.3,2.46,0.68,3.5,1.07c0.02,0,0.02,0,0.05,0.03
	c0.01,0,0.02,0.01,0.03,0.01c-0.27-0.08-0.54-0.15-0.82-0.22c0.28,0.1,0.7,0.27,1.19,0.49c1.41,0.5,2.54,1.04,3.33,1.62
	c0.12,0.08,0.22,0.17,0.33,0.25c-0.19-0.13-0.37-0.26-0.55-0.38c0.05,0.05,0.3,0.42,0.32,0.45c1.67,1.44,2.51,3.16,2.51,5.12
	c0,2.16-0.57,3.78-1.74,4.88c-1.14,1.07-2.61,1.99-4.4,2.71c-1.44,0.57-3.33,0.96-5.64,1.22c-2.29,0.24-4.15,0.37-5.57,0.37
	c-5.52,0-11.24-1.05-17.21-3.11c-5.97-2.06-11.36-5-16.19-8.85h-2.56v21.66c4.88,2.04,10.07,3.7,15.64,5.02
	c5.57,1.32,12.08,1.97,19.59,1.97c6.22,0,11.81-0.65,16.75-1.94c-0.27,0.02-0.39,0.02-0.39,0.02s0.04,0,0.17-0.02
	c3.4-0.85,6.59-1.99,9.47-3.46v-0.01c0,0,0,0,0-0.02c0.16-0.25,2.43-4,2.91-8.79c-0.5,4.96-2.91,8.81-2.91,8.81
	c1.69-0.87,3.26-1.84,4.72-2.93c7.56-5.57,11.31-12.8,11.31-21.71C234.45,203.77,232.81,198.7,229.49,194.8z"/>
</svg>
